<svg width="18" height="18" viewBox="0 0 18 18" fill="none" xmlns="http://www.w3.org/2000/svg">
<path fill-rule="evenodd" clip-rule="evenodd" d="M9.19877 0.312576C6.9036 0.312576 4.70251 1.22431 3.07961 2.84727C1.45666 4.4701 0.544922 6.67132 0.544922 8.96642C0.544922 11.2615 1.45666 13.4627 3.07961 15.0856C4.70245 16.7085 6.90366 17.6203 9.19877 17.6203C11.4939 17.6203 13.695 16.7085 15.3179 15.0856C16.9409 13.4627 17.8526 11.2615 17.8526 8.96642C17.8526 7.44744 17.4527 5.95509 16.6933 4.63953C15.9336 3.32397 14.8413 2.23161 13.5257 1.47194C12.2101 0.712443 10.7178 0.312576 9.19877 0.312576V0.312576ZM9.19877 16.5384C7.19056 16.5384 5.2647 15.7407 3.84455 14.3206C2.42455 12.9005 1.62677 10.9744 1.62677 8.96642C1.62677 6.95844 2.42452 5.03235 3.84455 3.6122C5.26466 2.19221 7.19078 1.39442 9.19877 1.39442C11.2068 1.39442 13.1328 2.19218 14.553 3.6122C15.973 5.03232 16.7708 6.95844 16.7708 8.96642C16.7708 10.2956 16.4209 11.6013 15.7563 12.7525C15.0917 13.9036 14.1359 14.8594 12.9847 15.524C11.8336 16.1886 10.5279 16.5385 9.19871 16.5385L9.19877 16.5384ZM9.19877 11.1298C9.05534 11.1298 8.91771 11.1868 8.8163 11.2882C8.71489 11.3896 8.65791 11.5272 8.65791 11.6707C8.65259 11.8227 8.71139 11.97 8.82016 12.0763C8.92435 12.1683 9.05993 12.2167 9.19877 12.2115C9.33724 12.2124 9.47089 12.1602 9.57193 12.0654C9.68336 11.965 9.74469 11.8206 9.73962 11.6707C9.74047 11.5269 9.68397 11.3888 9.5828 11.2866C9.48416 11.1804 9.34363 11.1229 9.19875 11.1298L9.19877 11.1298ZM9.19877 10.0481C9.34219 10.0481 9.47982 9.9911 9.58123 9.88969C9.68264 9.78828 9.73963 9.65065 9.73963 9.50722V6.26205C9.73963 6.06877 9.63653 5.89022 9.4692 5.79364C9.30187 5.69705 9.09566 5.69705 8.92834 5.79364C8.76101 5.89022 8.65791 6.06877 8.65791 6.26205V9.50722C8.65791 9.65065 8.71489 9.78828 8.8163 9.88969C8.91771 9.9911 9.05534 10.0481 9.19877 10.0481Z" fill="white" fill-opacity="0.75"/>
</svg>
