<svg width="19" height="23" viewBox="0 0 19 23" fill="none" xmlns="http://www.w3.org/2000/svg">
<path d="M12.4543 16.4874C13.0943 16.4874 13.7503 15.9434 13.7503 15.3194C13.7503 15.0154 13.6383 14.7274 13.4303 14.4234C13.2223 14.1354 12.9343 13.8154 12.5823 13.4794C12.2143 13.1434 11.9903 12.9194 11.8783 12.7754C11.6703 12.5674 11.5743 12.4394 11.5743 12.3594C11.5743 12.2314 12.0543 11.7674 12.5663 11.2714C13.0623 10.7754 13.5423 10.0394 13.5423 9.47939C13.5423 8.72739 12.9983 8.24739 12.2783 8.24739C11.5743 8.24739 10.9983 8.99939 10.7103 9.75139C10.4223 10.5194 10.0863 11.2714 9.8303 11.2714C9.6543 11.2714 9.3023 10.6154 8.8063 9.31939C8.4863 8.59939 7.9583 8.24739 7.2383 8.24739C6.5343 8.24739 6.0703 8.72739 6.0703 9.47939C5.9903 10.4714 8.0383 11.9754 7.9583 12.2954C7.9583 12.5994 7.4463 13.1114 6.9503 13.5594C6.4383 14.0074 5.9263 14.7114 5.9263 15.2714C5.9263 15.9754 6.3903 16.4714 7.0783 16.4714C7.9743 16.4714 8.6783 15.7514 8.9503 15.0474C9.2223 14.3434 9.5423 13.6234 9.7983 13.6234C10.0383 13.6234 10.2783 14.3594 10.4543 14.6154C10.6623 14.9994 10.8543 15.3034 10.9983 15.5274C11.3023 15.9754 11.8783 16.4874 12.4543 16.4874Z" fill="white"/>
<circle cx="9.6322" cy="12.3097" r="8.86853" stroke="white"/>
</svg>
