<svg width="24" height="24" viewBox="0 0 24 24" fill="none" xmlns="http://www.w3.org/2000/svg">
<path d="M12.1388 23.0319C18.4989 23.0319 23.6547 17.8761 23.6547 11.516C23.6547 5.15587 18.4989 0 12.1388 0C5.77868 0 0.622803 5.15587 0.622803 11.516C0.622803 17.8761 5.77868 23.0319 12.1388 23.0319Z" fill="#CB14E2"/>
<path d="M8.7354 6.85729C9.61534 6.85113 10.4772 7.1065 11.2118 7.59102C11.9463 8.07555 12.5203 8.76737 12.8611 9.57869C13.2018 10.39 13.2939 11.2842 13.1255 12.1479C12.9572 13.0117 12.536 13.8059 11.9156 14.4299C11.2951 15.0538 10.5033 15.4794 9.64057 15.6526C8.77782 15.8258 7.88309 15.7388 7.06987 15.4026C6.25665 15.0665 5.56149 14.4963 5.07285 13.7645C4.58421 13.0327 4.32403 12.1722 4.32523 11.2922C4.32278 10.7112 4.43507 10.1355 4.65552 9.59791C4.87597 9.06035 5.2003 8.57157 5.60998 8.15958C6.01966 7.7476 6.50657 7.42048 7.04288 7.19701C7.57919 6.97354 8.15439 6.8581 8.7354 6.85729ZM15.7728 7.11816C17.0151 7.11816 17.9779 8.9816 17.9779 11.2922C17.9779 13.6029 16.9903 15.4725 15.7728 15.4725C14.5554 15.4725 13.5679 13.6091 13.5679 11.2922C13.5679 8.97539 14.5554 7.11816 15.7728 7.11816ZM19.1768 7.55296C19.6054 7.55296 19.9532 9.22383 19.9532 11.2798C19.9532 13.3358 19.6054 15.0067 19.1768 15.0067C18.7482 15.0067 18.4065 13.3296 18.4065 11.2798C18.4065 9.23004 18.7482 7.55296 19.1768 7.55296Z" fill="white"/>
</svg>
