<svg width="44" height="36" viewBox="0 0 44 36" fill="none" xmlns="http://www.w3.org/2000/svg">
<rect width="44" height="36" fill="#38137f1a"/>
<path d="M8 9.1879C17.45 8.9078 29.6 8.9078 34.9981 9.41523C35.0153 9.73787 34.9132 10.0556 34.7109 10.3084C34.5087 10.5612 34.2204 10.7316 33.9005 10.7874C33.8516 10.8087 33.8086 10.8415 33.7753 10.8829C33.7419 10.9243 33.7192 10.9732 33.7091 11.0254C33.6719 11.4933 33.6506 11.5541 33.1775 11.6625C32.8447 11.726 32.6389 11.9244 32.3 11.9242C29.4863 11.963 26.5673 11.948 23.75 11.9797C21.9666 12.0009 20.1334 11.956 18.35 11.9797C16.8723 11.9983 15.4153 12.0141 13.9402 11.9797C12.6485 11.948 11.3595 11.8053 10.0731 11.6863C9.94288 11.6863 9.82328 11.5092 9.70899 11.4008C9.6771 11.3717 9.6824 11.3029 9.66646 11.2527C9.49901 10.7239 9.49902 10.724 8.94354 10.7002C8.52892 10.6869 8.41197 10.3485 8.27642 10.0735C8.16143 9.78586 8.069 9.48979 8 9.1879Z" fill="#38137F"/>
<path d="M35 18.8121C25.55 19.0922 13.4 19.0922 8.00187 18.5848C7.98465 18.2621 8.08682 17.9444 8.28906 17.6916C8.49131 17.4388 8.77962 17.2684 9.09955 17.2126C9.14843 17.1913 9.19139 17.1585 9.22472 17.1171C9.25805 17.0757 9.28075 17.0268 9.29091 16.9746C9.32811 16.5067 9.34938 16.4459 9.82247 16.3375C10.1553 16.274 10.3611 16.0756 10.7 16.0758C13.5137 16.037 16.4327 16.052 19.25 16.0203C21.0334 15.9991 22.8666 16.044 24.65 16.0203C26.1277 16.0017 27.5847 15.9859 29.0598 16.0203C30.3515 16.052 31.6405 16.1947 32.9269 16.3137C33.0571 16.3137 33.1767 16.4908 33.291 16.5992C33.3229 16.6283 33.3176 16.6971 33.3335 16.7473C33.501 17.2761 33.501 17.276 34.0565 17.2998C34.4711 17.3131 34.588 17.6515 34.7236 17.9265C34.8386 18.2141 34.931 18.5102 35 18.8121Z" fill="#38137F"/>
<path d="M8 23.1879C17.45 22.9078 29.6 22.9078 34.9981 23.4152C35.0153 23.7379 34.9132 24.0556 34.7109 24.3084C34.5087 24.5612 34.2204 24.7316 33.9005 24.7874C33.8516 24.8087 33.8086 24.8415 33.7753 24.8829C33.7419 24.9243 33.7192 24.9732 33.7091 25.0254C33.6719 25.4933 33.6506 25.5541 33.1775 25.6625C32.8447 25.726 32.6389 25.9244 32.3 25.9242C29.4863 25.963 26.5673 25.948 23.75 25.9797C21.9666 26.0009 20.1334 25.956 18.35 25.9797C16.8723 25.9983 15.4153 26.0141 13.9402 25.9797C12.6485 25.948 11.3595 25.8053 10.0731 25.6863C9.94288 25.6863 9.82328 25.5092 9.70899 25.4008C9.6771 25.3717 9.6824 25.3029 9.66646 25.2527C9.49901 24.7239 9.49902 24.724 8.94354 24.7002C8.52892 24.6869 8.41197 24.3485 8.27642 24.0735C8.16143 23.7859 8.069 23.4898 8 23.1879Z" fill="#38137F"/>
</svg>
