<svg width="24" height="24" viewBox="0 0 24 24" fill="none" xmlns="http://www.w3.org/2000/svg">
<path d="M11.8277 23.0319C18.1878 23.0319 23.3437 17.8761 23.3437 11.516C23.3437 5.15587 18.1878 0 11.8277 0C5.46764 0 0.311768 5.15587 0.311768 11.516C0.311768 17.8761 5.46764 23.0319 11.8277 23.0319Z" fill="#CB14E2"/>
<path d="M17.4364 6.83891C17.4266 6.79284 17.4047 6.75019 17.3731 6.71528C17.3415 6.68037 17.3011 6.65444 17.2563 6.64014C17.0944 6.60826 16.9268 6.62114 16.7717 6.67741C16.7717 6.67741 6.0074 10.5471 5.39247 10.9757C5.26203 11.0689 5.21858 11.1186 5.19373 11.1807C5.08814 11.485 5.41734 11.6217 5.41734 11.6217L8.19382 12.5286C8.24079 12.5397 8.2897 12.5397 8.33667 12.5286C8.95781 12.1311 14.6847 8.52221 15.0139 8.39798C15.0698 8.39798 15.1071 8.39798 15.0947 8.43525C14.9643 8.9011 9.99515 13.3174 9.99515 13.3174V13.3671L9.73424 16.1188C9.73424 16.1188 9.62868 16.9635 10.4734 16.1188C11.0946 15.5287 11.6412 15.0318 11.9269 14.7895C12.8834 15.4479 13.9083 16.1747 14.3556 16.5536C14.4291 16.6259 14.5165 16.6825 14.6126 16.7199C14.7087 16.7573 14.8115 16.7747 14.9145 16.771C15.3369 16.771 15.4549 16.2927 15.4549 16.2927C15.4549 16.2927 17.4177 8.39797 17.4799 7.34203C17.4799 7.23644 17.4799 7.17435 17.4799 7.09982C17.4762 7.01139 17.4616 6.92373 17.4364 6.83891Z" fill="white"/>
</svg>
