<svg width="24" height="24" viewBox="0 0 24 24" fill="none" xmlns="http://www.w3.org/2000/svg">
<path d="M11.516 23.0319C17.8761 23.0319 23.0319 17.8761 23.0319 11.516C23.0319 5.15587 17.8761 0 11.516 0C5.15587 0 0 5.15587 0 11.516C0 17.8761 5.15587 23.0319 11.516 23.0319Z" fill="#CB14E2"/>
<path d="M9.19287 18.15C10.3367 18.1566 11.4705 17.9361 12.5285 17.5014C13.5865 17.0668 14.5478 16.4265 15.3566 15.6177C16.1654 14.8089 16.8057 13.8476 17.2403 12.7896C17.675 11.7316 17.8954 10.5978 17.8889 9.45398C17.8889 9.32354 17.8889 9.18688 17.8889 9.05644C18.4889 8.62424 19.0065 8.08776 19.4169 7.47254C18.8594 7.72347 18.2664 7.88687 17.659 7.95701C18.2987 7.57504 18.7761 6.97171 19.0007 6.2613C18.4028 6.62026 17.7471 6.87249 17.0628 7.00668C16.6439 6.55703 16.0992 6.24411 15.4997 6.10875C14.9003 5.97339 14.274 6.02189 13.7026 6.24792C13.1311 6.47395 12.6411 6.86701 12.2965 7.37579C11.9518 7.88456 11.7686 8.48541 11.7706 9.09992C11.7692 9.33424 11.7963 9.56785 11.8514 9.7956C10.6356 9.73437 9.44614 9.41856 8.36011 8.86859C7.27408 8.31862 6.31564 7.54673 5.54677 6.60292C5.27205 7.06736 5.12828 7.59756 5.13066 8.13716C5.12995 8.64088 5.25372 9.13698 5.49104 9.58129C5.72837 10.0256 6.07186 10.4043 6.49092 10.6838C6.00544 10.6656 5.53103 10.5337 5.10579 10.2987V10.3422C5.1077 11.0522 5.35673 11.7393 5.81011 12.2856C6.26349 12.8319 6.89293 13.2034 7.59035 13.3361C7.32785 13.4115 7.05594 13.4491 6.78284 13.4479C6.59098 13.4481 6.39962 13.4294 6.21144 13.392C6.40685 13.9997 6.78727 14.5312 7.29957 14.9121C7.81187 15.293 8.43041 15.5042 9.06867 15.5163C7.98421 16.3668 6.64548 16.8284 5.26729 16.8269C5.02445 16.8252 4.78184 16.8107 4.54053 16.7834C5.9404 17.6798 7.5679 18.1562 9.23018 18.1562" fill="white"/>
</svg>
