<?xml version="1.0" standalone="no"?>
<!DOCTYPE svg PUBLIC "-//W3C//DTD SVG 20010904//EN"
 "http://www.w3.org/TR/2001/REC-SVG-20010904/DTD/svg10.dtd">
<svg version="1.0" xmlns="http://www.w3.org/2000/svg"
 width="630.000000pt" height="630.000000pt" viewBox="0 0 630.000000 630.000000"
 preserveAspectRatio="xMidYMid meet">
<metadata>
Created by potrace 1.14, written by Peter Selinger 2001-2017
</metadata>
<g transform="translate(0.000000,630.000000) scale(0.100000,-0.100000)"
fill="#000000" stroke="none">
<path d="M3279 6238 c-38 -61 -74 -123 -91 -155 -6 -13 -15 -23 -20 -23 -4 0
-8 -6 -8 -13 0 -7 -16 -36 -35 -66 -19 -29 -35 -54 -35 -56 0 -2 -301 -502
-391 -650 -10 -16 -28 -46 -39 -65 -11 -19 -31 -53 -45 -75 -14 -22 -28 -47
-32 -55 -3 -8 -9 -17 -13 -20 -3 -3 -26 -39 -50 -80 -25 -41 -50 -84 -57 -95
-7 -11 -16 -28 -19 -37 -3 -10 -10 -18 -15 -18 -5 0 -9 -4 -9 -10 0 -5 -21
-44 -47 -87 -70 -114 -70 -114 -95 -160 -12 -24 -26 -43 -30 -43 -4 0 -8 -4
-8 -9 0 -5 -18 -38 -40 -72 -22 -35 -43 -71 -48 -79 -19 -39 -98 -165 -104
-168 -5 -2 -8 -7 -8 -12 0 -22 -95 -170 -109 -170 -13 0 -63 96 -86 164 -48
143 -59 377 -29 601 16 119 26 170 34 173 42 15 69 64 48 89 -7 9 -6 14 5 19
15 5 27 29 33 61 3 15 -42 53 -61 53 -7 0 -16 20 -20 46 -22 151 -148 323
-286 391 -92 45 -114 52 -172 59 -29 3 -56 7 -62 8 -29 9 -239 -35 -255 -53
-3 -3 -23 -15 -44 -26 -85 -43 -213 -193 -232 -272 -4 -15 -9 -32 -13 -38 -7
-12 -10 -29 -16 -74 -5 -39 -6 -40 -35 -46 -47 -9 -62 -72 -24 -102 11 -8 13
-19 9 -33 -9 -28 13 -70 36 -70 25 0 32 -14 44 -90 5 -35 14 -81 21 -110 3
-14 6 -34 5 -45 0 -11 4 -34 9 -51 6 -16 12 -50 15 -75 5 -48 7 -61 36 -198
64 -293 129 -471 248 -671 74 -124 151 -222 274 -347 l70 -72 -44 -44 c-54
-55 -85 -91 -116 -136 -13 -20 -27 -38 -31 -41 -28 -21 -143 -257 -159 -325
-31 -135 -39 -326 -18 -435 4 -19 8 -45 10 -57 5 -35 35 -122 67 -192 103
-231 324 -428 593 -530 33 -12 67 -26 75 -31 16 -7 77 -23 82 -20 2 1 17 -4
33 -10 17 -7 39 -14 50 -16 11 -2 31 -6 45 -9 68 -15 128 -27 155 -31 17 -3
41 -7 55 -10 14 -2 45 -7 70 -10 25 -3 56 -7 70 -10 14 -3 43 -6 65 -8 132
-12 126 -8 206 -122 41 -58 82 -115 91 -127 26 -35 221 -310 241 -340 9 -15
13 -28 7 -28 -5 -1 -13 -2 -17 -3 -5 -1 -29 -5 -54 -9 -78 -13 -93 -16 -191
-41 -227 -58 -324 -143 -322 -282 1 -52 6 -69 33 -108 59 -86 191 -164 392
-231 140 -48 206 -37 239 39 38 86 0 151 -115 196 -33 13 -82 34 -109 48 -72
35 -56 40 184 58 107 8 126 10 138 18 6 3 13 2 17 -3 3 -6 13 -7 22 -4 10 4
26 -5 45 -28 21 -24 31 -30 35 -20 3 7 17 26 32 42 21 22 38 29 86 34 33 3 67
8 75 10 8 2 31 6 50 9 35 5 131 26 206 45 59 15 195 66 251 94 112 58 194 168
209 282 3 28 7 51 9 53 6 7 -27 136 -44 170 -20 40 -104 149 -130 168 -12 9
-7 14 25 24 21 7 53 18 69 25 17 8 77 32 135 55 342 136 633 299 855 481 121
98 225 209 225 238 0 6 4 11 9 11 14 0 87 173 98 230 39 219 11 412 -93 640
-79 172 -220 355 -356 464 -45 36 -58 56 -219 324 -9 15 -41 69 -73 120 -31
51 -56 97 -56 102 0 4 -3 10 -8 12 -6 2 -102 157 -138 223 -6 11 -47 79 -90
150 -44 72 -83 138 -87 148 -7 19 -1 30 71 116 58 70 232 242 286 284 28 21
61 37 75 37 16 0 31 8 39 21 8 12 19 18 28 15 16 -6 58 30 50 43 -3 5 6 21 21
37 46 50 97 138 109 187 1 4 2 8 4 10 4 6 11 46 14 94 14 210 -140 416 -347
463 -132 29 -267 0 -365 -78 -34 -27 -53 -35 -88 -36 -47 -1 -65 -16 -59 -47
2 -11 -4 -20 -16 -24 -10 -4 -19 -13 -19 -22 0 -8 -30 -44 -66 -80 -36 -37
-93 -98 -127 -137 -34 -39 -68 -77 -75 -84 -10 -11 -15 -8 -30 18 -9 17 -36
61 -59 96 -22 35 -39 64 -35 64 3 0 -2 8 -10 18 -9 9 -27 35 -39 58 -13 23
-73 123 -134 223 -60 100 -115 189 -120 199 -6 9 -33 54 -60 100 -28 46 -59
99 -69 118 -11 19 -23 34 -27 34 -4 0 -22 -24 -40 -52z m1494 -3807 c-15 -22
-29 -38 -31 -36 -5 4 43 74 51 75 5 0 -4 -18 -20 -39z m-2817 -118 c35 -48 39
-59 11 -33 -15 14 -27 30 -27 37 0 6 -6 14 -12 16 -7 3 -8 6 -2 6 5 1 19 -11
30 -26z m1802 -1344 c-26 -17 -40 -11 -28 12 9 16 14 18 26 8 12 -10 12 -14 2
-20z"/>
</g>
</svg>
